<?xml version="1.0" encoding="utf-8"?>
<!-- Generator: Adobe Illustrator 21.0.0, SVG Export Plug-In . SVG Version: 6.00 Build 0)  -->
<svg version="1.1" id="Layer_1" xmlns="http://www.w3.org/2000/svg" xmlns:xlink="http://www.w3.org/1999/xlink" x="0px" y="0px"
	 viewBox="0 0 50 50" style="enable-background:new 0 0 50 50;" xml:space="preserve">
<style type="text/css">
	.st0{fill:#989898;}
</style>
<path class="st0" d="M22.1,44.9h0.7c1.1-0.1,2.1-0.5,3-1.4l1.7-1.7L8.2,22.4l-1.7,1.7c-1.8,1.8-1.8,4.8,0,6.7l12.7,12.7
	C20,44.4,21.1,44.8,22.1,44.9z M28,44.9h13.2c0.7,0,1.2,0.6,1.2,1.2c0,0.7-0.6,1.2-1.2,1.2H23c-0.3,0-0.6,0-0.9,0H8.8
	c-0.7,0-1.2-0.6-1.2-1.2c0-0.7,0.6-1.2,1.2-1.2H17L4.7,32.6c-2.8-2.8-2.8-7.4,0-10.2L22.4,4.7c2.8-2.8,7.4-2.8,10.2,0l12.7,12.7
	c2.8,2.8,2.8,7.4,0,10.2L28,44.9z M10,20.7L29.4,40l14.2-14.2c1.8-1.8,1.8-4.8,0-6.7L30.8,6.5c-1.8-1.8-4.8-1.8-6.7,0L10,20.7z"/>
</svg>
