<?xml version="1.0" encoding="utf-8"?>
<!-- Generator: Adobe Illustrator 21.0.0, SVG Export Plug-In . SVG Version: 6.00 Build 0)  -->
<svg version="1.1" id="Layer_1" xmlns="http://www.w3.org/2000/svg" xmlns:xlink="http://www.w3.org/1999/xlink" x="0px" y="0px"
	 viewBox="0 0 50 50" style="enable-background:new 0 0 50 50;" xml:space="preserve">
<style type="text/css">
	.st0{fill:#989898;}
</style>
<g>
	<path class="st0" d="M19.9,45c0,1.9,1.5,3.4,3.4,3.4h0.2c1.9,0,3.4-1.5,3.4-3.4V32.5h-7.1V45H19.9z"/>
	<path class="st0" d="M41.9,7.6L41.9,7.6h-1.2v-2c0-2.2-1.8-4-4-4H9.4c-2.2,0-4,1.8-4,4v7.2c0,2.2,1.8,4,4,4h27.3c2.2,0,4-1.8,4-4
		v-2.2h0.6c0.3,0,0.6,0.3,0.6,0.6v0.7V16c0,0.8-0.5,1.5-1.2,1.8l0,0L25,25.3l0,0c-1.7,0.7-2.8,2.4-2.8,4.2V31h2.7v-1.4
		c0-0.8,0.5-1.5,1.2-1.8l0,0l15.7-7.5l0,0c1.7-0.7,2.8-2.4,2.8-4.2v-5.6C44.6,8.6,43.7,7.6,41.9,7.6z M38,12.7
		c0,0.4-0.1,0.7-0.4,0.9C37.4,13.8,37,14,36.7,14H9.4c-0.4,0-0.7-0.1-0.9-0.4c-0.2-0.2-0.4-0.6-0.4-0.9V5.6c0-0.4,0.1-0.7,0.4-0.9
		C8.7,4.4,9,4.3,9.4,4.3h27.3c0.4,0,0.7,0.1,0.9,0.4C37.9,4.9,38,5.2,38,5.6V12.7L38,12.7z"/>
</g>
</svg>
