<?xml version="1.0" encoding="utf-8"?>
<!-- Generator: Adobe Illustrator 21.0.0, SVG Export Plug-In . SVG Version: 6.00 Build 0)  -->
<svg version="1.1" id="Layer_1" xmlns="http://www.w3.org/2000/svg" xmlns:xlink="http://www.w3.org/1999/xlink" x="0px" y="0px"
	 viewBox="0 0 50 50" style="enable-background:new 0 0 50 50;" xml:space="preserve">
<style type="text/css">
	.st0{fill:#989898;}
</style>
<g>
	<path class="st0" d="M20.7,38c0,0,0.9-1.4,1.9-3.1L8.7,26.3c-1,1.7-1.9,3.1-1.9,3.1s2.5,5.5-0.9,11L8.6,42l2.7,1.7
		C14.7,38.2,20.7,38,20.7,38z"/>
	<path class="st0" d="M37.1,11.3c0.5-0.9,0.3-2.1-0.6-2.6L25.8,2.2c-0.3-0.2-0.7-0.3-1-0.3c-0.6,0-1.3,0.3-1.6,0.9L9.4,25.1
		l13.9,8.6L37.1,11.3z M13.5,24.2L25.1,5.3l8.9,5.4L22.3,29.6L13.5,24.2z"/>
	<polygon class="st0" points="3.9,46 8.6,46 9.8,44.1 6.2,41.9 	"/>
	<path class="st0" d="M45.4,45.6H12.5c-0.4,0-0.6,0.3-0.6,0.6v1.2c0,0.4,0.3,0.6,0.6,0.6h32.9c0.4,0,0.6-0.3,0.6-0.6v-1.2
		C46.1,45.9,45.8,45.6,45.4,45.6z"/>
</g>
</svg>
